<?xml version="1.0" encoding="UTF-8" standalone="no"?>
<svg
   xmlns:dc="http://purl.org/dc/elements/1.1/"
   xmlns:cc="http://creativecommons.org/ns#"
   xmlns:rdf="http://www.w3.org/1999/02/22-rdf-syntax-ns#"
   xmlns:svg="http://www.w3.org/2000/svg"
   xmlns="http://www.w3.org/2000/svg"
   xmlns:sodipodi="http://sodipodi.sourceforge.net/DTD/sodipodi-0.dtd"
   xmlns:inkscape="http://www.inkscape.org/namespaces/inkscape"
   width="62"
   height="62"
   fill="none"
   viewBox="0 0 62 62"
   version="1.1"
   id="svg4"
   sodipodi:docname="humidity.svg"
   inkscape:version="1.0.1 (3bc2e813f5, 2020-09-07)">
  <metadata
     id="metadata10">
    <rdf:RDF>
      <cc:Work
         rdf:about="">
        <dc:format>image/svg+xml</dc:format>
        <dc:type
           rdf:resource="http://purl.org/dc/dcmitype/StillImage" />
      </cc:Work>
    </rdf:RDF>
  </metadata>
  <defs
     id="defs8" />
  <sodipodi:namedview
     pagecolor="#ffffff"
     bordercolor="#666666"
     borderopacity="1"
     objecttolerance="10"
     gridtolerance="10"
     guidetolerance="10"
     inkscape:pageopacity="0"
     inkscape:pageshadow="2"
     inkscape:window-width="1920"
     inkscape:window-height="1017"
     id="namedview6"
     showgrid="false"
     inkscape:zoom="9.6942059"
     inkscape:cx="22.943968"
     inkscape:cy="28.803492"
     inkscape:window-x="-8"
     inkscape:window-y="-8"
     inkscape:window-maximized="1"
     inkscape:current-layer="svg4" />
  <path
     fill="#fff"
     d="M45.485 27.111 32.64 6.66a2.015 2.015 0 0 0-3.282 0L16.457 27.21a19.348 19.348 0 0 0-2.895 9.604 17.438 17.438 0 0 0 34.876 0 19.497 19.497 0 0 0-2.953-9.702ZM31 50.375a13.58 13.58 0 0 1-13.563-13.563 15.473 15.473 0 0 1 2.36-7.64l1.812-2.886 19.518 19.518A13.517 13.517 0 0 1 31 50.377v-.002Z"
     id="path2"
     style="fill:#000000" />
  <path
     fill="#fff"
     d="M45.485 27.111 32.64 6.66a2.015 2.015 0 0 0-3.282 0L16.457 27.21a19.348 19.348 0 0 0-2.895 9.604 17.438 17.438 0 0 0 34.876 0 19.497 19.497 0 0 0-2.953-9.702ZM31 50.375a13.58 13.58 0 0 1-13.563-13.563 15.473 15.473 0 0 1 2.36-7.64l1.812-2.886 19.518 19.518A13.517 13.517 0 0 1 31 50.377v-.002Z"
     id="path12"
     style="fill:#000000" />
</svg>
