<svg xmlns="http://www.w3.org/2000/svg" width="256" height="256" fill="none" viewBox="0 0 256 256">
  <path fill="#000" d="M128 74.667a53.334 53.334 0 1 0 0 106.668 53.334 53.334 0 0 0 0-106.668Z"/>
  <path fill="#000" fill-rule="evenodd" d="M128 10.667a10.665 10.665 0 0 1 10.667 10.666V32A10.665 10.665 0 0 1 128 42.667 10.665 10.665 0 0 1 117.333 32V21.333A10.665 10.665 0 0 1 128 10.667ZM35.125 35.125a10.667 10.667 0 0 1 15.083 0l16 16a10.667 10.667 0 0 1-15.083 15.083l-16-16a10.667 10.667 0 0 1 0-15.083Zm185.75 0a10.67 10.67 0 0 1 0 15.083l-16 16a10.662 10.662 0 0 1-7.58 3.256 10.67 10.67 0 0 1-9.965-6.627 10.678 10.678 0 0 1 .072-8.25 10.662 10.662 0 0 1 2.39-3.462l16-16a10.666 10.666 0 0 1 15.083 0ZM10.667 128a10.665 10.665 0 0 1 10.666-10.667H32A10.665 10.665 0 0 1 42.667 128 10.665 10.665 0 0 1 32 138.667H21.333A10.665 10.665 0 0 1 10.667 128Zm202.666 0c0-2.829 1.124-5.542 3.125-7.542 2-2.001 4.713-3.125 7.542-3.125h10.667c2.829 0 5.542 1.124 7.542 3.125a10.662 10.662 0 0 1 0 15.084 10.663 10.663 0 0 1-7.542 3.125H224a10.663 10.663 0 0 1-7.542-3.125 10.663 10.663 0 0 1-3.125-7.542ZM66.208 189.792a10.666 10.666 0 0 1 0 15.083l-16 16a10.668 10.668 0 0 1-18.076-7.58 10.667 10.667 0 0 1 2.993-7.503l16-16a10.665 10.665 0 0 1 15.083 0Zm123.584 0a10.665 10.665 0 0 1 15.083 0l16 16a10.668 10.668 0 0 1-7.58 18.077 10.668 10.668 0 0 1-7.503-2.994l-16-16a10.667 10.667 0 0 1 0-15.083ZM128 213.333c2.829 0 5.542 1.124 7.542 3.125 2.001 2 3.125 4.713 3.125 7.542v10.667c0 2.829-1.124 5.542-3.125 7.542a10.662 10.662 0 0 1-15.084 0 10.663 10.663 0 0 1-3.125-7.542V224c0-2.829 1.124-5.542 3.125-7.542 2-2.001 4.713-3.125 7.542-3.125Z" clip-rule="evenodd"/>
</svg>
