<svg xmlns="http://www.w3.org/2000/svg" width="167" height="167" fill="none" viewBox="0 0 167 167">
  <path  fill-rule="evenodd" d="M55.667 111.333A27.832 27.832 0 0 1 94.95 85.966a27.837 27.837 0 0 1 16.072 21.226 27.831 27.831 0 0 1-9.111 25.016H65.088a27.742 27.742 0 0 1-9.421-20.875Zm6.75 34.792h83.708a6.958 6.958 0 0 0 0-13.917h-26.463a41.736 41.736 0 0 0 5.588-20.873 41.748 41.748 0 0 0-62.622-36.15 41.75 41.75 0 0 0-15.29 57.023H20.874a6.958 6.958 0 1 0 0 13.917h41.541Zm70.285-83.994a6.957 6.957 0 0 1 0 9.839l-4.919 4.92a6.96 6.96 0 0 1-9.839-9.84l4.919-4.919a6.96 6.96 0 0 1 9.839 0ZM27.833 118.292a6.958 6.958 0 1 0 0-13.917h-6.958a6.958 6.958 0 1 0 0 13.917h6.958Zm125.25-6.959a6.959 6.959 0 0 1-6.958 6.959h-6.958a6.959 6.959 0 1 1 0-13.917h6.958a6.958 6.958 0 0 1 6.958 6.958ZM39.217 76.89a6.958 6.958 0 0 0 9.84-9.84l-4.92-4.919a6.96 6.96 0 1 0-9.84 9.839l4.92 4.92Zm51.241-38.02V20.874a6.959 6.959 0 0 0-13.916 0v17.994l-2.04-2.038a6.958 6.958 0 0 0-9.838 9.838l13.91 13.91.07.07a6.938 6.938 0 0 0 9.782-.07l13.917-13.91a6.957 6.957 0 0 0-.003-9.842 6.96 6.96 0 0 0-9.843.004l-2.039 2.038Z" clip-rule="evenodd"/>
</svg>
