<?xml version="1.0" encoding="UTF-8" standalone="no"?>
<svg
   xmlns:dc="http://purl.org/dc/elements/1.1/"
   xmlns:cc="http://creativecommons.org/ns#"
   xmlns:rdf="http://www.w3.org/1999/02/22-rdf-syntax-ns#"
   xmlns:svg="http://www.w3.org/2000/svg"
   xmlns="http://www.w3.org/2000/svg"
   xmlns:sodipodi="http://sodipodi.sourceforge.net/DTD/sodipodi-0.dtd"
   xmlns:inkscape="http://www.inkscape.org/namespaces/inkscape"
   width="60"
   height="60"
   fill="none"
   viewBox="0 0 60 60"
   version="1.1"
   id="svg11"
   sodipodi:docname="wind.svg"
   inkscape:version="1.0.1 (3bc2e813f5, 2020-09-07)">
  <metadata
     id="metadata15">
    <rdf:RDF>
      <cc:Work
         rdf:about="">
        <dc:format>image/svg+xml</dc:format>
        <dc:type
           rdf:resource="http://purl.org/dc/dcmitype/StillImage" />
      </cc:Work>
    </rdf:RDF>
  </metadata>
  <sodipodi:namedview
     pagecolor="#ffffff"
     bordercolor="#666666"
     borderopacity="1"
     objecttolerance="10"
     gridtolerance="10"
     guidetolerance="10"
     inkscape:pageopacity="0"
     inkscape:pageshadow="2"
     inkscape:window-width="1920"
     inkscape:window-height="1017"
     id="namedview13"
     showgrid="false"
     inkscape:zoom="14.166667"
     inkscape:cx="30"
     inkscape:cy="30"
     inkscape:window-x="-8"
     inkscape:window-y="-8"
     inkscape:window-maximized="1"
     inkscape:current-layer="svg11" />
  <g
     clip-path="url(#a)"
     id="g4"
     style="fill:#000000">
    <path
       fill="#ffffff"
       d="M 18.363,30 H 1.875 A 1.88,1.88 0 0 0 0,31.875 v 3.75 A 1.88,1.88 0 0 0 1.875,37.5 h 16.664 c 1.863,0 3.61,1.277 3.914,3.117 A 3.754,3.754 0 0 1 18.75,45 3.772,3.772 0 0 1 15.187,42.434 C 14.941,41.695 14.18,41.25 13.407,41.25 H 9.561 c -1.148,0 -2.074,1.031 -1.863,2.156 1.008,5.168 5.578,9.094 11.04,9.094 6.69,0 12.034,-5.871 11.155,-12.727 C 29.18,34.102 24.07,30 18.364,30 Z M 1.875,26.25 H 41.25 c 6.996,0 12.516,-6.422 10.992,-13.676 C 51.352,8.332 47.918,4.898 43.676,4.008 A 11.276,11.276 0 0 0 30.211,12.856 C 29.988,13.98 30.926,15 32.063,15 h 3.843 c 0.785,0 1.535,-0.445 1.782,-1.184 a 3.772,3.772 0 0 1 3.562,-2.566 3.76,3.76 0 0 1 3.703,4.383 c -0.305,1.84 -2.039,3.117 -3.914,3.117 H 1.875 A 1.88,1.88 0 0 0 0,20.625 v 3.75 a 1.88,1.88 0 0 0 1.875,1.875 z m 45,3.75 H 28.559 a 14.814,14.814 0 0 1 4.664,7.5 H 46.875 A 5.626,5.626 0 0 1 52.5,43.125 5.626,5.626 0 0 1 46.875,48.75 C 44.777,48.75 42.973,47.59 42,45.89 41.66,45.305 40.98,45 40.3,45 h -3.96 c -1.278,0 -2.227,1.266 -1.793,2.473 2.086,5.93 8.262,9.937 15.164,8.472 4.828,-1.02 8.8,-4.875 9.926,-9.691 C 61.64,37.676 55.137,30 46.875,30 Z"
       id="path2"
       style="fill:#000000" />
  </g>
  <defs
     id="defs9">
    <clipPath
       id="a">
      <path
         fill="#fff"
         d="M0 0h60v60H0z"
         id="path6" />
    </clipPath>
  </defs>
</svg>
